# File created by Blade
# Date/Time:  Tue Jan 27 17:27:44 2015
#---------------------------------------------------------
:version 1.10
:name HOM
:units
  mass 1.0
  length 1.000000
  angle deg
:documentation
     Acclaim Skeleton File
:root
   axis xyz
   order TX TY TZ RX RY RZ
   position 0.000000 0.000000 0.000000
   orientation 0 0 0
:bonedata
   begin
      id 1
      name Spine_dum
      direction 0.000000 1.000000 0.000000
      length 7.539951
      axis 0.0 0.0 0.0 xyz
   end
   begin
      id 2
      name LeftUpLeg_dum
      direction 1.000000 0.000000 0.000000
      length 3.345476
      axis 0.0 0.0 0.0 xyz
   end
   begin
      id 3
      name RightUpLeg_dum
      direction -1.000000 0.000000 0.000000
      length 3.345476
      axis 0.0 0.0 0.0 xyz
   end
   begin
      id 4
      name Spine
      direction 0.000000 1.000000 0.000000
      length 0.000000
      axis 0.0 0.0 0.0 xyz
      dof rx ry rz
   end
   begin
      id 5
      name Spine_dum1
      direction 0.000000 1.000000 0.000000
      length 15.093809
      axis 0.0 0.0 0.0 xyz
   end
   begin
      id 6
      name Spine_dum2
      direction 0.000000 1.000000 0.000000
      length 9.738928
      axis 0.0 0.0 0.0 xyz
   end
   begin
      id 7
      name Spine_dum3
      direction 0.000000 1.000000 0.000000
      length 9.738928
      axis 0.0 0.0 0.0 xyz
   end
   begin
      id 8
      name Head
      direction 0.000000 1.000000 0.000000
      length 4.527550
      axis 0.0 0.0 0.0 xyz
      dof rx ry rz
   end
   begin
      id 9
      name LeftShoulder
      direction 1.000000 0.000000 0.000000
      length 7.084015
      axis 0.0 0.0 -90.0 xyz
      dof rx ry rz
   end
   begin
      id 10
      name LeftArm
      direction 1.000000 0.000000 0.000000
      length 10.259319
      axis 0.0 0.0 -90.0 xyz
      dof rx ry rz
   end
   begin
      id 11
      name LeftForeArm
      direction 1.000000 0.000000 0.000000
      length 9.896984
      axis 0.0 0.0 -90.0 xyz
      dof ry rz rx
   end
   begin
      id 12
      name LeftHand
      direction 0.000000 0.000000 0.000000
      length 0.000000
      axis 0.0 0.0 -90.0 xyz
      dof rx ry rz
   end
   begin
      id 13
      name LeftHand_dum1
      direction 0.000000 0.000000 0.000000
      length 0.000000
      axis 0.0 0.0 -90.0 xyz
   end
   begin
      id 14
      name LeftHand_dum2
      direction 1.000000 0.000000 0.000000
      length 3.937000
      axis 0.0 0.0 -90.0 xyz
   end
   begin
      id 15
      name LeftHandThumb1
      direction 0.000000 0.000000 1.000000
      length 3.937000
      axis 0.0 0.0 -90.0 xyz
      dof rx rz ry
   end
   begin
      id 16
      name RightShoulder
      direction -1.000000 0.000000 0.000000
      length 7.084015
      axis 0.0 0.0 90.0 xyz
      dof rx ry rz
   end
   begin
      id 17
      name RightArm
      direction -1.000000 0.000000 0.000000
      length 10.259319
      axis 0.0 0.0 90.0 xyz
      dof rx ry rz
   end
   begin
      id 18
      name RightForeArm
      direction -1.000000 0.000000 0.000000
      length 9.896984
      axis 0.0 0.0 90.0 xyz
      dof ry rz rx
   end
   begin
      id 19
      name RightHand
      direction 0.000000 0.000000 0.000000
      length 0.000000
      axis 0.0 0.0 90.0 xyz
      dof rx ry rz
   end
   begin
      id 20
      name RightHand_dum1
      direction 0.000000 0.000000 0.000000
      length 0.000000
      axis 0.0 0.0 90.0 xyz
   end
   begin
      id 21
      name RightHand_dum2
      direction -1.000000 0.000000 0.000000
      length 3.937000
      axis 0.0 0.0 90.0 xyz
   end
   begin
      id 22
      name RightHandThumb1
      direction 0.000000 0.000000 1.000000
      length 3.937000
      axis 0.0 0.0 90.0 xyz
      dof rx rz ry
   end
   begin
      id 23
      name LeftUpLeg
      direction 0.000000 -1.000000 0.000000
      length 19.114733
      axis 0.0 0.0 0.0 xyz
      dof rx ry rz
   end
   begin
      id 24
      name LeftLeg
      direction 0.000000 -1.000000 0.000000
      length 16.045604
      axis 0.0 0.0 0.0 xyz
      dof rx ry rz
   end
   begin
      id 25
      name LeftFoot
      direction 0.000000 -0.258819 0.965926
      length 5.543155
      axis 15.0 0.0 0.0 xyz
      dof rx ry rz
   end
   begin
      id 26
      name LeftToeBase
      direction 0.000000 0.000000 1.000000
      length 2.952750
      axis 0.0 0.0 0.0 xyz
      dof rx ry rz
   end
   begin
      id 27
      name RightUpLeg
      direction 0.000000 -1.000000 0.000000
      length 19.114733
      axis 0.0 0.0 0.0 xyz
      dof rx ry rz
   end
   begin
      id 28
      name RightLeg
      direction 0.000000 -1.000000 0.000000
      length 16.045604
      axis 0.0 0.0 0.0 xyz
      dof rx ry rz
   end
   begin
      id 29
      name RightFoot
      direction 0.000000 -0.258819 0.965926
      length 5.543155
      axis 15.0 0.0 0.0 xyz
      dof rx ry rz
   end
   begin
      id 30
      name RightToeBase
      direction 0.000000 0.000000 1.000000
      length 2.952750
      axis 0.0 0.0 0.0 xyz
      dof rx ry rz
   end
:hierarchy
   begin
      root Spine_dum LeftUpLeg_dum RightUpLeg_dum
      Spine_dum Spine
      LeftUpLeg_dum LeftUpLeg
      RightUpLeg_dum RightUpLeg
      Spine Spine_dum1 Spine_dum2 Spine_dum3
      Spine_dum1 Head
      Spine_dum2 LeftShoulder
      Spine_dum3 RightShoulder
      LeftShoulder LeftArm
      LeftArm LeftForeArm
      LeftForeArm LeftHand
      LeftHand LeftHand_dum1 LeftHand_dum2
      LeftHand_dum1 LeftHandThumb1
      RightShoulder RightArm
      RightArm RightForeArm
      RightForeArm RightHand
      RightHand RightHand_dum1 RightHand_dum2
      RightHand_dum1 RightHandThumb1
      LeftUpLeg LeftLeg
      LeftLeg LeftFoot
      LeftFoot LeftToeBase
      RightUpLeg RightLeg
      RightLeg RightFoot
      RightFoot RightToeBase
   end

# File created by Blade
# Date/Time:  Tue Jan 27 17:27:32 2015
# Frame Rate: 120.000 fps
#------------------------------------------------------
:FULLY-SPECIFIED
:DEGREES
1001
root 4.204804 37.049763 -0.189418 10.753082 21.116801 -1.192209
Spine -4.359557 15.538878 3.220539
Head 10.288400 1.363032 -8.168981
LeftShoulder -6.806214 -9.141402 3.180701
LeftArm 2.369453 -12.462885 -52.228991
LeftForeArm 7.223132 -0.000000 103.782797
LeftHand -17.671633 -0.000000 35.760182
LeftHandThumb1 -26.253704 0.000000 33.147579
RightShoulder -4.855986 -22.318889 -1.769050
RightArm 11.656307 -19.589081 61.852361
RightForeArm 189.524336 -0.000000 21.315886
RightHand 0.689572 -0.000000 3.377357
RightHandThumb1 -24.326973 -0.000000 -32.862282
LeftUpLeg -12.377333 -6.040777 -1.312654
LeftLeg 6.472606 -0.000000 -0.000000
LeftFoot -11.397275 -7.486288 -7.080916
LeftToeBase 8.869726 -0.000000 -0.000000
RightUpLeg -54.341353 3.077257 -9.941971
RightLeg 96.768635 -0.000000 -0.000000
RightFoot -4.073088 -8.830463 2.444433
RightToeBase 3.675618 -0.000000 -0.000000
1002
root 4.235051 37.039824 -0.168933 10.806819 21.361076 -1.018810
Spine -4.450024 15.431423 3.270524
Head 10.185550 1.363742 -8.388591
LeftShoulder -6.863741 -9.077307 3.087497
LeftArm 2.439988 -12.255140 -52.187910
LeftForeArm 7.216379 -0.000000 103.636929
LeftHand -17.721515 -0.000000 35.873113
LeftHandThumb1 -26.253704 0.000000 33.147579
RightShoulder -4.973355 -22.416697 -1.727216
RightArm 11.628643 -19.639482 61.916495
RightForeArm 189.265912 -0.000000 21.336898
RightHand 0.715189 -0.000000 3.230604
RightHandThumb1 -24.326973 -0.000000 -32.862282
LeftUpLeg -12.285932 -6.159529 -1.489894
LeftLeg 6.361829 -0.000000 -0.000000
LeftFoot -11.329054 -7.620932 -7.186397
LeftToeBase 8.876317 -0.000000 -0.000000
RightUpLeg -53.843789 3.272613 -10.432446
RightLeg 98.280297 -0.000000 -0.000000
RightFoot -4.087068 -8.922645 2.671764
RightToeBase 4.153862 -0.000000 -0.000000
1003
root 4.263777 37.031520 -0.148089 10.858109 21.597970 -0.890765
Spine -4.553682 15.324431 3.380022
Head 10.104393 1.414683 -8.641884
LeftShoulder -6.930354 -9.035016 2.966444
LeftArm 2.491350 -12.060516 -52.166123
LeftForeArm 7.247023 -0.000000 103.506269
LeftHand -17.819872 -0.000000 36.051518
LeftHandThumb1 -26.253704 0.000000 33.147579
RightShoulder -5.051348 -22.484469 -1.749719
RightArm 11.569679 -19.721670 62.019587
RightForeArm 189.109806 -0.000000 21.346335
RightHand 0.773223 -0.000000 3.099446
RightHandThumb1 -24.326973 -0.000000 -32.862282
LeftUpLeg -12.251016 -6.068024 -1.652933
LeftLeg 6.368911 -0.000000 -0.000000
LeftFoot -11.304623 -7.937396 -7.130701
LeftToeBase 8.859902 -0.000000 -0.000000
RightUpLeg -53.329274 3.312798 -10.655787
RightLeg 99.805174 -0.000000 -0.000000
RightFoot -3.857364 -9.314180 2.625959
RightToeBase 3.563721 -0.000000 -0.000000
1004
root 4.293027 37.025349 -0.127709 10.915003 21.795225 -0.745585
Spine -4.652307 15.235697 3.444627
Head 10.019125 1.474053 -8.931976
LeftShoulder -7.025919 -8.984969 2.879649
LeftArm 2.542996 -11.855588 -52.184688
LeftForeArm 7.259952 -0.000000 103.392091
LeftHand -17.913728 0.000000 36.339521
LeftHandThumb1 -26.253704 0.000000 33.147579
RightShoulder -5.077758 -22.553485 -1.775029
RightArm 11.531554 -19.836325 62.120840
RightForeArm 188.988317 0.000000 21.335708
RightHand 0.757179 -0.000000 3.064267
RightHandThumb1 -24.326973 -0.000000 -32.862282
LeftUpLeg -12.188141 -6.082946 -1.816122
LeftLeg 6.327514 -0.000000 -0.000000
LeftFoot -11.237664 -8.090151 -7.158095
LeftToeBase 8.815210 -0.000000 -0.000000
RightUpLeg -52.811809 3.208832 -10.714475
RightLeg 101.334343 -0.000000 -0.000000
RightFoot -3.544713 -9.926520 2.361920
RightToeBase 3.933375 -0.000000 -0.000000
1005
root 4.317906 37.020368 -0.107892 11.000720 21.953805 -0.633356
Spine -4.806456 15.195424 3.500715
Head 9.960387 1.548742 -9.128984
LeftShoulder -7.097155 -8.951883 2.846727
LeftArm 2.479179 -11.642641 -52.258990
LeftForeArm 7.356631 -0.000000 103.322139
LeftHand -17.782489 -0.000000 36.204313
LeftHandThumb1 -26.253704 0.000000 33.147579
RightShoulder -5.078431 -22.621796 -1.804940
RightArm 11.480683 -19.918980 62.254622
RightForeArm 188.774047 -0.000000 21.296168
RightHand 0.601845 0.000000 2.967221
RightHandThumb1 -24.326973 -0.000000 -32.862282
LeftUpLeg -12.166261 -6.114963 -1.930111
LeftLeg 6.295040 -0.000000 -0.000000
LeftFoot -11.303718 -8.062042 -6.999485
LeftToeBase 8.783112 -0.000000 -0.000000
RightUpLeg -52.324369 2.974603 -10.544718
RightLeg 102.844042 -0.000000 -0.000000
RightFoot -2.531066 -10.839342 0.647213
RightToeBase 2.166525 -0.000000 -0.000000
1006
root 4.338496 37.015319 -0.089934 11.093877 22.072110 -0.521038
Spine -4.951715 15.199299 3.520391
Head 9.891130 1.606225 -9.312205
LeftShoulder -7.154031 -8.954135 2.809571
LeftArm 2.412014 -11.452667 -52.307251
LeftForeArm 7.412932 -0.000000 103.264234
LeftHand -17.713324 -0.000000 36.221723
LeftHandThumb1 -26.253704 0.000000 33.147579
RightShoulder -5.080383 -22.698090 -1.844188
RightArm 11.482666 -19.997636 62.394105
RightForeArm 188.574995 -0.000000 21.278573
RightHand 0.671398 -0.000000 2.714508
RightHandThumb1 -24.326973 -0.000000 -32.862282
LeftUpLeg -12.147889 -6.062074 -2.058082
LeftLeg 6.199167 -0.000000 -0.000000
LeftFoot -11.214166 -8.282994 -6.985052
LeftToeBase 9.002371 -0.000000 -0.000000
RightUpLeg -51.880836 2.642087 -10.242386
RightLeg 104.367399 -0.000000 -0.000000
RightFoot -2.492636 -11.325656 1.128257
RightToeBase 2.965529 -0.000000 -0.000000
1007
root 4.359196 37.011020 -0.071352 11.205567 22.138118 -0.430222
Spine -5.131182 15.262943 3.532729
Head 9.835436 1.646472 -9.502317
LeftShoulder -7.208824 -8.888736 2.759170
LeftArm 2.289520 -11.241214 -52.341803
LeftForeArm 7.473859 -0.000000 103.276256
LeftHand -17.409707 -0.000000 36.105883
LeftHandThumb1 -26.253704 0.000000 33.147579
RightShoulder -5.110396 -22.708376 -1.877222
RightArm 11.461540 -20.220860 62.505570
RightForeArm 188.454618 -0.000000 21.260401
RightHand 0.726757 -0.000000 2.510447
RightHandThumb1 -24.326973 -0.000000 -32.862282
LeftUpLeg -12.154980 -5.958979 -2.168694
LeftLeg 6.124579 -0.000000 -0.000000
LeftFoot -11.150148 -8.474562 -7.101936
LeftToeBase 9.024675 -0.000000 -0.000000
RightUpLeg -51.455045 2.231808 -9.789966
RightLeg 105.861755 -0.000000 -0.000000
RightFoot -2.167475 -11.640651 0.878904
RightToeBase 3.897996 -0.000000 -0.000000
